<svg xmlns="http://www.w3.org/2000/svg" xmlns:xlink="http://www.w3.org/1999/xlink" width="562.384" height="453.908" version="1.1" viewBox="0 0 421.788 340.431"><metadata><rdf:RDF xmlns:cc="http://creativecommons.org/ns#" xmlns:dc="http://purl.org/dc/elements/1.1/" xmlns:rdf="http://www.w3.org/1999/02/22-rdf-syntax-ns#"><cc:Work><dc:type rdf:resource="http://purl.org/dc/dcmitype/StillImage"/><dc:date>2022-02-21T01:34:12.444492</dc:date><dc:format>image/svg+xml</dc:format><dc:creator><cc:Agent><dc:title>Matplotlib v3.5.0, https://matplotlib.org/</dc:title></cc:Agent></dc:creator></cc:Work></rdf:RDF></metadata><defs><style type="text/css">*{stroke-linejoin:round;stroke-linecap:butt}</style></defs><g id="figure_1"><g id="patch_1"><path d="M 0 340.430683 L 421.787867 340.430683 L 421.787867 0 L 0 0 L 0 340.430683 z" style="fill:none"/></g><g id="axes_1"><g id="patch_2"><path d="M 69.23125 239.758125 L 404.03125 239.758125 L 404.03125 22.318125 L 69.23125 22.318125 z" style="fill:#fff"/></g><g id="patch_3"><path d="M 74.014107 239.758125 L 112.276964 239.758125 L 112.276964 67.990909 L 74.014107 67.990909 z" clip-path="url(#p68459bdb11)" style="fill:#5875a4"/></g><g id="patch_4"><path d="M 121.842679 239.758125 L 160.105536 239.758125 L 160.105536 68.093798 L 121.842679 68.093798 z" clip-path="url(#p68459bdb11)" style="fill:#cc8963"/></g><g id="patch_5"><path d="M 169.67125 239.758125 L 207.934107 239.758125 L 207.934107 57.498326 L 169.67125 57.498326 z" clip-path="url(#p68459bdb11)" style="fill:#5f9e6e"/></g><g id="patch_6"><path d="M 217.499821 239.758125 L 255.762679 239.758125 L 255.762679 68.194741 L 217.499821 68.194741 z" clip-path="url(#p68459bdb11)" style="fill:#b55d60"/></g><g id="patch_7"><path d="M 265.328393 239.758125 L 303.59125 239.758125 L 303.59125 32.672411 L 265.328393 32.672411 z" clip-path="url(#p68459bdb11)" style="fill:#857aab"/></g><g id="patch_8"><path d="M 313.156964 239.758125 L 351.419821 239.758125 L 351.419821 32.972304 L 313.156964 32.972304 z" clip-path="url(#p68459bdb11)" style="fill:#8d7866"/></g><g id="patch_9"><path d="M 360.985536 239.758125 L 399.248393 239.758125 L 399.248393 67.925583 L 360.985536 67.925583 z" clip-path="url(#p68459bdb11)" style="fill:#d095bf"/></g><g id="matplotlib.axis_1"><g id="xtick_1"><g id="line2d_1"><defs><path id="m3154f1c3a2" d="M 0 0 L 0 3.5" style="stroke:#000;stroke-width:.8"/></defs><g><use x="93.146" y="239.758" xlink:href="#m3154f1c3a2" style="stroke:#000;stroke-width:.8"/></g></g><g id="text_1"><g transform="translate(62.121226 318.081997)rotate(-45)scale(0.1 -0.1)"><defs><path id="DejaVuSans-41" d="M 2188 4044 L 1331 1722 L 3047 1722 L 2188 4044 z M 1831 4666 L 2547 4666 L 4325 0 L 3669 0 L 3244 1197 L 1141 1197 L 716 0 L 50 0 L 1831 4666 z" transform="scale(0.015625)"/><path id="DejaVuSans-73" d="M 2834 3397 L 2834 2853 Q 2591 2978 2328 3040 Q 2066 3103 1784 3103 Q 1356 3103 1142 2972 Q 928 2841 928 2578 Q 928 2378 1081 2264 Q 1234 2150 1697 2047 L 1894 2003 Q 2506 1872 2764 1633 Q 3022 1394 3022 966 Q 3022 478 2636 193 Q 2250 -91 1575 -91 Q 1294 -91 989 -36 Q 684 19 347 128 L 347 722 Q 666 556 975 473 Q 1284 391 1588 391 Q 1994 391 2212 530 Q 2431 669 2431 922 Q 2431 1156 2273 1281 Q 2116 1406 1581 1522 L 1381 1569 Q 847 1681 609 1914 Q 372 2147 372 2553 Q 372 3047 722 3315 Q 1072 3584 1716 3584 Q 2034 3584 2315 3537 Q 2597 3491 2834 3397 z" transform="scale(0.015625)"/><path id="DejaVuSans-69" d="M 603 3500 L 1178 3500 L 1178 0 L 603 0 L 603 3500 z M 603 4863 L 1178 4863 L 1178 4134 L 603 4134 L 603 4863 z" transform="scale(0.015625)"/><path id="DejaVuSans-74" d="M 1172 4494 L 1172 3500 L 2356 3500 L 2356 3053 L 1172 3053 L 1172 1153 Q 1172 725 1289 603 Q 1406 481 1766 481 L 2356 481 L 2356 0 L 1766 0 Q 1100 0 847 248 Q 594 497 594 1153 L 594 3053 L 172 3053 L 172 3500 L 594 3500 L 594 4494 L 1172 4494 z" transform="scale(0.015625)"/><path id="DejaVuSans-61" d="M 2194 1759 Q 1497 1759 1228 1600 Q 959 1441 959 1056 Q 959 750 1161 570 Q 1363 391 1709 391 Q 2188 391 2477 730 Q 2766 1069 2766 1631 L 2766 1759 L 2194 1759 z M 3341 1997 L 3341 0 L 2766 0 L 2766 531 Q 2569 213 2275 61 Q 1981 -91 1556 -91 Q 1019 -91 701 211 Q 384 513 384 1019 Q 384 1609 779 1909 Q 1175 2209 1959 2209 L 2766 2209 L 2766 2266 Q 2766 2663 2505 2880 Q 2244 3097 1772 3097 Q 1472 3097 1187 3025 Q 903 2953 641 2809 L 641 3341 Q 956 3463 1253 3523 Q 1550 3584 1831 3584 Q 2591 3584 2966 3190 Q 3341 2797 3341 1997 z" transform="scale(0.015625)"/><path id="DejaVuSans-6e" d="M 3513 2113 L 3513 0 L 2938 0 L 2938 2094 Q 2938 2591 2744 2837 Q 2550 3084 2163 3084 Q 1697 3084 1428 2787 Q 1159 2491 1159 1978 L 1159 0 L 581 0 L 581 3500 L 1159 3500 L 1159 2956 Q 1366 3272 1645 3428 Q 1925 3584 2291 3584 Q 2894 3584 3203 3211 Q 3513 2838 3513 2113 z" transform="scale(0.015625)"/><path id="DejaVuSans-20" transform="scale(0.015625)"/><path id="DejaVuSans-45" d="M 628 4666 L 3578 4666 L 3578 4134 L 1259 4134 L 1259 2753 L 3481 2753 L 3481 2222 L 1259 2222 L 1259 531 L 3634 531 L 3634 0 L 628 0 L 628 4666 z" transform="scale(0.015625)"/><path id="DejaVuSans-67" d="M 2906 1791 Q 2906 2416 2648 2759 Q 2391 3103 1925 3103 Q 1463 3103 1205 2759 Q 947 2416 947 1791 Q 947 1169 1205 825 Q 1463 481 1925 481 Q 2391 481 2648 825 Q 2906 1169 2906 1791 z M 3481 434 Q 3481 -459 3084 -895 Q 2688 -1331 1869 -1331 Q 1566 -1331 1297 -1286 Q 1028 -1241 775 -1147 L 775 -588 Q 1028 -725 1275 -790 Q 1522 -856 1778 -856 Q 2344 -856 2625 -561 Q 2906 -266 2906 331 L 2906 616 Q 2728 306 2450 153 Q 2172 0 1784 0 Q 1141 0 747 490 Q 353 981 353 1791 Q 353 2603 747 3093 Q 1141 3584 1784 3584 Q 2172 3584 2450 3431 Q 2728 3278 2906 2969 L 2906 3500 L 3481 3500 L 3481 434 z" transform="scale(0.015625)"/><path id="DejaVuSans-65" d="M 3597 1894 L 3597 1613 L 953 1613 Q 991 1019 1311 708 Q 1631 397 2203 397 Q 2534 397 2845 478 Q 3156 559 3463 722 L 3463 178 Q 3153 47 2828 -22 Q 2503 -91 2169 -91 Q 1331 -91 842 396 Q 353 884 353 1716 Q 353 2575 817 3079 Q 1281 3584 2069 3584 Q 2775 3584 3186 3129 Q 3597 2675 3597 1894 z M 3022 2063 Q 3016 2534 2758 2815 Q 2500 3097 2075 3097 Q 1594 3097 1305 2825 Q 1016 2553 972 2059 L 3022 2063 z" transform="scale(0.015625)"/><path id="DejaVuSans-72" d="M 2631 2963 Q 2534 3019 2420 3045 Q 2306 3072 2169 3072 Q 1681 3072 1420 2755 Q 1159 2438 1159 1844 L 1159 0 L 581 0 L 581 3500 L 1159 3500 L 1159 2956 Q 1341 3275 1631 3429 Q 1922 3584 2338 3584 Q 2397 3584 2469 3576 Q 2541 3569 2628 3553 L 2631 2963 z" transform="scale(0.015625)"/></defs><use xlink:href="#DejaVuSans-41"/><use x="68.408" xlink:href="#DejaVuSans-73"/><use x="120.508" xlink:href="#DejaVuSans-73"/><use x="172.607" xlink:href="#DejaVuSans-69"/><use x="200.391" xlink:href="#DejaVuSans-73"/><use x="252.49" xlink:href="#DejaVuSans-74"/><use x="291.699" xlink:href="#DejaVuSans-61"/><use x="352.979" xlink:href="#DejaVuSans-6e"/><use x="416.357" xlink:href="#DejaVuSans-74"/><use x="455.566" xlink:href="#DejaVuSans-20"/><use x="487.354" xlink:href="#DejaVuSans-45"/><use x="550.537" xlink:href="#DejaVuSans-6e"/><use x="613.916" xlink:href="#DejaVuSans-67"/><use x="677.393" xlink:href="#DejaVuSans-69"/><use x="705.176" xlink:href="#DejaVuSans-6e"/><use x="768.555" xlink:href="#DejaVuSans-65"/><use x="830.078" xlink:href="#DejaVuSans-65"/><use x="891.602" xlink:href="#DejaVuSans-72"/></g></g></g><g id="xtick_2"><g id="line2d_2"><g><use x="140.974" y="239.758" xlink:href="#m3154f1c3a2" style="stroke:#000;stroke-width:.8"/></g></g><g id="text_2"><g transform="translate(127.178896 283.6238)rotate(-45)scale(0.1 -0.1)"><use xlink:href="#DejaVuSans-45"/><use x="63.184" xlink:href="#DejaVuSans-6e"/><use x="126.563" xlink:href="#DejaVuSans-67"/><use x="190.039" xlink:href="#DejaVuSans-69"/><use x="217.822" xlink:href="#DejaVuSans-6e"/><use x="281.201" xlink:href="#DejaVuSans-65"/><use x="342.725" xlink:href="#DejaVuSans-65"/><use x="404.248" xlink:href="#DejaVuSans-72"/></g></g></g><g id="xtick_3"><g id="line2d_3"><g><use x="188.803" y="239.758" xlink:href="#m3154f1c3a2" style="stroke:#000;stroke-width:.8"/></g></g><g id="text_3"><g transform="translate(175.256059 283.126615)rotate(-45)scale(0.1 -0.1)"><defs><path id="DejaVuSans-4d" d="M 628 4666 L 1569 4666 L 2759 1491 L 3956 4666 L 4897 4666 L 4897 0 L 4281 0 L 4281 4097 L 3078 897 L 2444 897 L 1241 4097 L 1241 0 L 628 0 L 628 4666 z" transform="scale(0.015625)"/></defs><use xlink:href="#DejaVuSans-4d"/><use x="86.279" xlink:href="#DejaVuSans-61"/><use x="147.559" xlink:href="#DejaVuSans-6e"/><use x="210.938" xlink:href="#DejaVuSans-61"/><use x="272.217" xlink:href="#DejaVuSans-67"/><use x="335.693" xlink:href="#DejaVuSans-65"/><use x="397.217" xlink:href="#DejaVuSans-72"/></g></g></g><g id="xtick_4"><g id="line2d_4"><g><use x="236.631" y="239.758" xlink:href="#m3154f1c3a2" style="stroke:#000;stroke-width:.8"/></g></g><g id="text_4"><g transform="translate(210.452831 308.390215)rotate(-45)scale(0.1 -0.1)"><defs><path id="DejaVuSans-53" d="M 3425 4513 L 3425 3897 Q 3066 4069 2747 4153 Q 2428 4238 2131 4238 Q 1616 4238 1336 4038 Q 1056 3838 1056 3469 Q 1056 3159 1242 3001 Q 1428 2844 1947 2747 L 2328 2669 Q 3034 2534 3370 2195 Q 3706 1856 3706 1288 Q 3706 609 3251 259 Q 2797 -91 1919 -91 Q 1588 -91 1214 -16 Q 841 59 441 206 L 441 856 Q 825 641 1194 531 Q 1563 422 1919 422 Q 2459 422 2753 634 Q 3047 847 3047 1241 Q 3047 1584 2836 1778 Q 2625 1972 2144 2069 L 1759 2144 Q 1053 2284 737 2584 Q 422 2884 422 3419 Q 422 4038 858 4394 Q 1294 4750 2059 4750 Q 2388 4750 2728 4690 Q 3069 4631 3425 4513 z" transform="scale(0.015625)"/><path id="DejaVuSans-6f" d="M 1959 3097 Q 1497 3097 1228 2736 Q 959 2375 959 1747 Q 959 1119 1226 758 Q 1494 397 1959 397 Q 2419 397 2687 759 Q 2956 1122 2956 1747 Q 2956 2369 2687 2733 Q 2419 3097 1959 3097 z M 1959 3584 Q 2709 3584 3137 3096 Q 3566 2609 3566 1747 Q 3566 888 3137 398 Q 2709 -91 1959 -91 Q 1206 -91 779 398 Q 353 888 353 1747 Q 353 2609 779 3096 Q 1206 3584 1959 3584 z" transform="scale(0.015625)"/></defs><use xlink:href="#DejaVuSans-53"/><use x="63.477" xlink:href="#DejaVuSans-65"/><use x="125" xlink:href="#DejaVuSans-6e"/><use x="188.379" xlink:href="#DejaVuSans-69"/><use x="216.162" xlink:href="#DejaVuSans-6f"/><use x="277.344" xlink:href="#DejaVuSans-72"/><use x="318.457" xlink:href="#DejaVuSans-20"/><use x="350.244" xlink:href="#DejaVuSans-45"/><use x="413.428" xlink:href="#DejaVuSans-6e"/><use x="476.807" xlink:href="#DejaVuSans-67"/><use x="540.283" xlink:href="#DejaVuSans-69"/><use x="568.066" xlink:href="#DejaVuSans-6e"/><use x="631.445" xlink:href="#DejaVuSans-65"/><use x="692.969" xlink:href="#DejaVuSans-65"/><use x="754.492" xlink:href="#DejaVuSans-72"/></g></g></g><g id="xtick_5"><g id="line2d_5"><g><use x="284.46" y="239.758" xlink:href="#m3154f1c3a2" style="stroke:#000;stroke-width:.8"/></g></g><g id="text_5"><g transform="translate(265.741379 293.470262)rotate(-45)scale(0.1 -0.1)"><defs><path id="DejaVuSans-66" d="M 2375 4863 L 2375 4384 L 1825 4384 Q 1516 4384 1395 4259 Q 1275 4134 1275 3809 L 1275 3500 L 2222 3500 L 2222 3053 L 1275 3053 L 1275 0 L 697 0 L 697 3053 L 147 3053 L 147 3500 L 697 3500 L 697 3744 Q 697 4328 969 4595 Q 1241 4863 1831 4863 L 2375 4863 z" transform="scale(0.015625)"/></defs><use xlink:href="#DejaVuSans-53"/><use x="63.477" xlink:href="#DejaVuSans-65"/><use x="125" xlink:href="#DejaVuSans-6e"/><use x="188.379" xlink:href="#DejaVuSans-69"/><use x="216.162" xlink:href="#DejaVuSans-6f"/><use x="277.344" xlink:href="#DejaVuSans-72"/><use x="318.457" xlink:href="#DejaVuSans-20"/><use x="350.244" xlink:href="#DejaVuSans-53"/><use x="413.721" xlink:href="#DejaVuSans-74"/><use x="452.93" xlink:href="#DejaVuSans-61"/><use x="514.209" xlink:href="#DejaVuSans-66"/><use x="549.414" xlink:href="#DejaVuSans-66"/></g></g></g><g id="xtick_6"><g id="line2d_6"><g><use x="332.288" y="239.758" xlink:href="#m3154f1c3a2" style="stroke:#000;stroke-width:.8"/></g></g><g id="text_6"><g transform="translate(325.953158 268.703847)rotate(-45)scale(0.1 -0.1)"><use xlink:href="#DejaVuSans-53"/><use x="63.477" xlink:href="#DejaVuSans-74"/><use x="102.686" xlink:href="#DejaVuSans-61"/><use x="163.965" xlink:href="#DejaVuSans-66"/><use x="199.17" xlink:href="#DejaVuSans-66"/></g></g></g><g id="xtick_7"><g id="line2d_7"><g><use x="380.117" y="239.758" xlink:href="#m3154f1c3a2" style="stroke:#000;stroke-width:.8"/></g></g><g id="text_7"><g transform="translate(351.018968 314.22937)rotate(-45)scale(0.1 -0.1)"><defs><path id="DejaVuSans-54" d="M -19 4666 L 3928 4666 L 3928 4134 L 2272 4134 L 2272 0 L 1638 0 L 1638 4134 L -19 4134 L -19 4666 z" transform="scale(0.015625)"/><path id="DejaVuSans-63" d="M 3122 3366 L 3122 2828 Q 2878 2963 2633 3030 Q 2388 3097 2138 3097 Q 1578 3097 1268 2742 Q 959 2388 959 1747 Q 959 1106 1268 751 Q 1578 397 2138 397 Q 2388 397 2633 464 Q 2878 531 3122 666 L 3122 134 Q 2881 22 2623 -34 Q 2366 -91 2075 -91 Q 1284 -91 818 406 Q 353 903 353 1747 Q 353 2603 823 3093 Q 1294 3584 2113 3584 Q 2378 3584 2631 3529 Q 2884 3475 3122 3366 z" transform="scale(0.015625)"/><path id="DejaVuSans-68" d="M 3513 2113 L 3513 0 L 2938 0 L 2938 2094 Q 2938 2591 2744 2837 Q 2550 3084 2163 3084 Q 1697 3084 1428 2787 Q 1159 2491 1159 1978 L 1159 0 L 581 0 L 581 4863 L 1159 4863 L 1159 2956 Q 1366 3272 1645 3428 Q 1925 3584 2291 3584 Q 2894 3584 3203 3211 Q 3513 2838 3513 2113 z" transform="scale(0.015625)"/><path id="DejaVuSans-71" d="M 947 1747 Q 947 1113 1208 752 Q 1469 391 1925 391 Q 2381 391 2643 752 Q 2906 1113 2906 1747 Q 2906 2381 2643 2742 Q 2381 3103 1925 3103 Q 1469 3103 1208 2742 Q 947 2381 947 1747 z M 2906 525 Q 2725 213 2448 61 Q 2172 -91 1784 -91 Q 1150 -91 751 415 Q 353 922 353 1747 Q 353 2572 751 3078 Q 1150 3584 1784 3584 Q 2172 3584 2448 3432 Q 2725 3281 2906 2969 L 2906 3500 L 3481 3500 L 3481 -1331 L 2906 -1331 L 2906 525 z" transform="scale(0.015625)"/><path id="DejaVuSans-75" d="M 544 1381 L 544 3500 L 1119 3500 L 1119 1403 Q 1119 906 1312 657 Q 1506 409 1894 409 Q 2359 409 2629 706 Q 2900 1003 2900 1516 L 2900 3500 L 3475 3500 L 3475 0 L 2900 0 L 2900 538 Q 2691 219 2414 64 Q 2138 -91 1772 -91 Q 1169 -91 856 284 Q 544 659 544 1381 z M 1991 3584 L 1991 3584 z" transform="scale(0.015625)"/><path id="DejaVuSans-4c" d="M 628 4666 L 1259 4666 L 1259 531 L 3531 531 L 3531 0 L 628 0 L 628 4666 z" transform="scale(0.015625)"/><path id="DejaVuSans-64" d="M 2906 2969 L 2906 4863 L 3481 4863 L 3481 0 L 2906 0 L 2906 525 Q 2725 213 2448 61 Q 2172 -91 1784 -91 Q 1150 -91 751 415 Q 353 922 353 1747 Q 353 2572 751 3078 Q 1150 3584 1784 3584 Q 2172 3584 2448 3432 Q 2725 3281 2906 2969 z M 947 1747 Q 947 1113 1208 752 Q 1469 391 1925 391 Q 2381 391 2643 752 Q 2906 1113 2906 1747 Q 2906 2381 2643 2742 Q 2381 3103 1925 3103 Q 1469 3103 1208 2742 Q 947 2381 947 1747 z" transform="scale(0.015625)"/></defs><use xlink:href="#DejaVuSans-54"/><use x="44.084" xlink:href="#DejaVuSans-65"/><use x="105.607" xlink:href="#DejaVuSans-63"/><use x="160.588" xlink:href="#DejaVuSans-68"/><use x="223.967" xlink:href="#DejaVuSans-6e"/><use x="287.346" xlink:href="#DejaVuSans-69"/><use x="315.129" xlink:href="#DejaVuSans-71"/><use x="378.605" xlink:href="#DejaVuSans-75"/><use x="441.984" xlink:href="#DejaVuSans-65"/><use x="503.508" xlink:href="#DejaVuSans-20"/><use x="535.295" xlink:href="#DejaVuSans-4c"/><use x="589.258" xlink:href="#DejaVuSans-65"/><use x="650.781" xlink:href="#DejaVuSans-61"/><use x="712.061" xlink:href="#DejaVuSans-64"/><use x="775.537" xlink:href="#DejaVuSans-65"/><use x="837.061" xlink:href="#DejaVuSans-72"/></g></g></g><g id="text_8"><g transform="translate(199.564844 331.150996)scale(0.1 -0.1)"><defs><path id="DejaVuSans-6d" d="M 3328 2828 Q 3544 3216 3844 3400 Q 4144 3584 4550 3584 Q 5097 3584 5394 3201 Q 5691 2819 5691 2113 L 5691 0 L 5113 0 L 5113 2094 Q 5113 2597 4934 2840 Q 4756 3084 4391 3084 Q 3944 3084 3684 2787 Q 3425 2491 3425 1978 L 3425 0 L 2847 0 L 2847 2094 Q 2847 2600 2669 2842 Q 2491 3084 2119 3084 Q 1678 3084 1418 2786 Q 1159 2488 1159 1978 L 1159 0 L 581 0 L 581 3500 L 1159 3500 L 1159 2956 Q 1356 3278 1631 3431 Q 1906 3584 2284 3584 Q 2666 3584 2933 3390 Q 3200 3197 3328 2828 z" transform="scale(0.015625)"/><path id="DejaVuSans-70" d="M 1159 525 L 1159 -1331 L 581 -1331 L 581 3500 L 1159 3500 L 1159 2969 Q 1341 3281 1617 3432 Q 1894 3584 2278 3584 Q 2916 3584 3314 3078 Q 3713 2572 3713 1747 Q 3713 922 3314 415 Q 2916 -91 2278 -91 Q 1894 -91 1617 61 Q 1341 213 1159 525 z M 3116 1747 Q 3116 2381 2855 2742 Q 2594 3103 2138 3103 Q 1681 3103 1420 2742 Q 1159 2381 1159 1747 Q 1159 1113 1420 752 Q 1681 391 2138 391 Q 2594 391 2855 752 Q 3116 1113 3116 1747 z" transform="scale(0.015625)"/><path id="DejaVuSans-6c" d="M 603 4863 L 1178 4863 L 1178 0 L 603 0 L 603 4863 z" transform="scale(0.015625)"/><path id="DejaVuSans-79" d="M 2059 -325 Q 1816 -950 1584 -1140 Q 1353 -1331 966 -1331 L 506 -1331 L 506 -850 L 844 -850 Q 1081 -850 1212 -737 Q 1344 -625 1503 -206 L 1606 56 L 191 3500 L 800 3500 L 1894 763 L 2988 3500 L 3597 3500 L 2059 -325 z" transform="scale(0.015625)"/></defs><use xlink:href="#DejaVuSans-45"/><use x="63.184" xlink:href="#DejaVuSans-6d"/><use x="160.596" xlink:href="#DejaVuSans-70"/><use x="224.072" xlink:href="#DejaVuSans-6c"/><use x="251.855" xlink:href="#DejaVuSans-6f"/><use x="313.037" xlink:href="#DejaVuSans-79"/><use x="372.217" xlink:href="#DejaVuSans-65"/><use x="433.74" xlink:href="#DejaVuSans-65"/><use x="495.264" xlink:href="#DejaVuSans-20"/><use x="527.051" xlink:href="#DejaVuSans-54"/><use x="585.01" xlink:href="#DejaVuSans-69"/><use x="612.793" xlink:href="#DejaVuSans-74"/><use x="652.002" xlink:href="#DejaVuSans-6c"/><use x="679.785" xlink:href="#DejaVuSans-65"/></g></g></g><g id="matplotlib.axis_2"><g id="ytick_1"><g id="line2d_8"><defs><path id="m07a9f692f9" d="M 0 0 L -3.5 0" style="stroke:#000;stroke-width:.8"/></defs><g><use x="69.231" y="239.758" xlink:href="#m07a9f692f9" style="stroke:#000;stroke-width:.8"/></g></g><g id="text_9"><g transform="translate(49.50625 243.557344)scale(0.1 -0.1)"><defs><path id="DejaVuSans-24" d="M 2163 -941 L 1850 -941 L 1847 0 Q 1519 6 1191 76 Q 863 147 531 288 L 531 850 Q 850 650 1176 548 Q 1503 447 1850 444 L 1850 1869 Q 1159 1981 845 2250 Q 531 2519 531 2988 Q 531 3497 872 3790 Q 1213 4084 1850 4128 L 1850 4863 L 2163 4863 L 2163 4138 Q 2453 4125 2725 4076 Q 2997 4028 3256 3944 L 3256 3397 Q 2997 3528 2723 3600 Q 2450 3672 2163 3684 L 2163 2350 Q 2872 2241 3206 1959 Q 3541 1678 3541 1191 Q 3541 663 3186 358 Q 2831 53 2163 6 L 2163 -941 z M 1850 2406 L 1850 3688 Q 1488 3647 1297 3481 Q 1106 3316 1106 3041 Q 1106 2772 1282 2622 Q 1459 2472 1850 2406 z M 2163 1806 L 2163 453 Q 2559 506 2761 678 Q 2963 850 2963 1131 Q 2963 1406 2770 1568 Q 2578 1731 2163 1806 z" transform="scale(0.015625)"/><path id="DejaVuSans-30" d="M 2034 4250 Q 1547 4250 1301 3770 Q 1056 3291 1056 2328 Q 1056 1369 1301 889 Q 1547 409 2034 409 Q 2525 409 2770 889 Q 3016 1369 3016 2328 Q 3016 3291 2770 3770 Q 2525 4250 2034 4250 z M 2034 4750 Q 2819 4750 3233 4129 Q 3647 3509 3647 2328 Q 3647 1150 3233 529 Q 2819 -91 2034 -91 Q 1250 -91 836 529 Q 422 1150 422 2328 Q 422 3509 836 4129 Q 1250 4750 2034 4750 z" transform="scale(0.015625)"/></defs><use xlink:href="#DejaVuSans-24"/><use x="63.623" xlink:href="#DejaVuSans-30"/></g></g></g><g id="ytick_2"><g id="line2d_9"><g><use x="69.231" y="204.389" xlink:href="#m07a9f692f9" style="stroke:#000;stroke-width:.8"/></g></g><g id="text_10"><g transform="translate(20.878125 208.188409)scale(0.1 -0.1)"><defs><path id="DejaVuSans-31" d="M 794 531 L 1825 531 L 1825 4091 L 703 3866 L 703 4441 L 1819 4666 L 2450 4666 L 2450 531 L 3481 531 L 3481 0 L 794 0 L 794 531 z" transform="scale(0.015625)"/><path id="DejaVuSans-2c" d="M 750 794 L 1409 794 L 1409 256 L 897 -744 L 494 -744 L 750 256 L 750 794 z" transform="scale(0.015625)"/></defs><use xlink:href="#DejaVuSans-24"/><use x="63.623" xlink:href="#DejaVuSans-31"/><use x="127.246" xlink:href="#DejaVuSans-30"/><use x="190.869" xlink:href="#DejaVuSans-2c"/><use x="222.656" xlink:href="#DejaVuSans-30"/><use x="286.279" xlink:href="#DejaVuSans-30"/><use x="349.902" xlink:href="#DejaVuSans-30"/></g></g></g><g id="ytick_3"><g id="line2d_10"><g><use x="69.231" y="169.02" xlink:href="#m07a9f692f9" style="stroke:#000;stroke-width:.8"/></g></g><g id="text_11"><g transform="translate(20.878125 172.819474)scale(0.1 -0.1)"><defs><path id="DejaVuSans-32" d="M 1228 531 L 3431 531 L 3431 0 L 469 0 L 469 531 Q 828 903 1448 1529 Q 2069 2156 2228 2338 Q 2531 2678 2651 2914 Q 2772 3150 2772 3378 Q 2772 3750 2511 3984 Q 2250 4219 1831 4219 Q 1534 4219 1204 4116 Q 875 4013 500 3803 L 500 4441 Q 881 4594 1212 4672 Q 1544 4750 1819 4750 Q 2544 4750 2975 4387 Q 3406 4025 3406 3419 Q 3406 3131 3298 2873 Q 3191 2616 2906 2266 Q 2828 2175 2409 1742 Q 1991 1309 1228 531 z" transform="scale(0.015625)"/></defs><use xlink:href="#DejaVuSans-24"/><use x="63.623" xlink:href="#DejaVuSans-32"/><use x="127.246" xlink:href="#DejaVuSans-30"/><use x="190.869" xlink:href="#DejaVuSans-2c"/><use x="222.656" xlink:href="#DejaVuSans-30"/><use x="286.279" xlink:href="#DejaVuSans-30"/><use x="349.902" xlink:href="#DejaVuSans-30"/></g></g></g><g id="ytick_4"><g id="line2d_11"><g><use x="69.231" y="133.651" xlink:href="#m07a9f692f9" style="stroke:#000;stroke-width:.8"/></g></g><g id="text_12"><g transform="translate(20.878125 137.450539)scale(0.1 -0.1)"><defs><path id="DejaVuSans-33" d="M 2597 2516 Q 3050 2419 3304 2112 Q 3559 1806 3559 1356 Q 3559 666 3084 287 Q 2609 -91 1734 -91 Q 1441 -91 1130 -33 Q 819 25 488 141 L 488 750 Q 750 597 1062 519 Q 1375 441 1716 441 Q 2309 441 2620 675 Q 2931 909 2931 1356 Q 2931 1769 2642 2001 Q 2353 2234 1838 2234 L 1294 2234 L 1294 2753 L 1863 2753 Q 2328 2753 2575 2939 Q 2822 3125 2822 3475 Q 2822 3834 2567 4026 Q 2313 4219 1838 4219 Q 1578 4219 1281 4162 Q 984 4106 628 3988 L 628 4550 Q 988 4650 1302 4700 Q 1616 4750 1894 4750 Q 2613 4750 3031 4423 Q 3450 4097 3450 3541 Q 3450 3153 3228 2886 Q 3006 2619 2597 2516 z" transform="scale(0.015625)"/></defs><use xlink:href="#DejaVuSans-24"/><use x="63.623" xlink:href="#DejaVuSans-33"/><use x="127.246" xlink:href="#DejaVuSans-30"/><use x="190.869" xlink:href="#DejaVuSans-2c"/><use x="222.656" xlink:href="#DejaVuSans-30"/><use x="286.279" xlink:href="#DejaVuSans-30"/><use x="349.902" xlink:href="#DejaVuSans-30"/></g></g></g><g id="ytick_5"><g id="line2d_12"><g><use x="69.231" y="98.282" xlink:href="#m07a9f692f9" style="stroke:#000;stroke-width:.8"/></g></g><g id="text_13"><g transform="translate(20.878125 102.081605)scale(0.1 -0.1)"><defs><path id="DejaVuSans-34" d="M 2419 4116 L 825 1625 L 2419 1625 L 2419 4116 z M 2253 4666 L 3047 4666 L 3047 1625 L 3713 1625 L 3713 1100 L 3047 1100 L 3047 0 L 2419 0 L 2419 1100 L 313 1100 L 313 1709 L 2253 4666 z" transform="scale(0.015625)"/></defs><use xlink:href="#DejaVuSans-24"/><use x="63.623" xlink:href="#DejaVuSans-34"/><use x="127.246" xlink:href="#DejaVuSans-30"/><use x="190.869" xlink:href="#DejaVuSans-2c"/><use x="222.656" xlink:href="#DejaVuSans-30"/><use x="286.279" xlink:href="#DejaVuSans-30"/><use x="349.902" xlink:href="#DejaVuSans-30"/></g></g></g><g id="ytick_6"><g id="line2d_13"><g><use x="69.231" y="62.913" xlink:href="#m07a9f692f9" style="stroke:#000;stroke-width:.8"/></g></g><g id="text_14"><g transform="translate(20.878125 66.71267)scale(0.1 -0.1)"><defs><path id="DejaVuSans-35" d="M 691 4666 L 3169 4666 L 3169 4134 L 1269 4134 L 1269 2991 Q 1406 3038 1543 3061 Q 1681 3084 1819 3084 Q 2600 3084 3056 2656 Q 3513 2228 3513 1497 Q 3513 744 3044 326 Q 2575 -91 1722 -91 Q 1428 -91 1123 -41 Q 819 9 494 109 L 494 744 Q 775 591 1075 516 Q 1375 441 1709 441 Q 2250 441 2565 725 Q 2881 1009 2881 1497 Q 2881 1984 2565 2268 Q 2250 2553 1709 2553 Q 1456 2553 1204 2497 Q 953 2441 691 2322 L 691 4666 z" transform="scale(0.015625)"/></defs><use xlink:href="#DejaVuSans-24"/><use x="63.623" xlink:href="#DejaVuSans-35"/><use x="127.246" xlink:href="#DejaVuSans-30"/><use x="190.869" xlink:href="#DejaVuSans-2c"/><use x="222.656" xlink:href="#DejaVuSans-30"/><use x="286.279" xlink:href="#DejaVuSans-30"/><use x="349.902" xlink:href="#DejaVuSans-30"/></g></g></g><g id="ytick_7"><g id="line2d_14"><g><use x="69.231" y="27.545" xlink:href="#m07a9f692f9" style="stroke:#000;stroke-width:.8"/></g></g><g id="text_15"><g transform="translate(20.878125 31.343735)scale(0.1 -0.1)"><defs><path id="DejaVuSans-36" d="M 2113 2584 Q 1688 2584 1439 2293 Q 1191 2003 1191 1497 Q 1191 994 1439 701 Q 1688 409 2113 409 Q 2538 409 2786 701 Q 3034 994 3034 1497 Q 3034 2003 2786 2293 Q 2538 2584 2113 2584 z M 3366 4563 L 3366 3988 Q 3128 4100 2886 4159 Q 2644 4219 2406 4219 Q 1781 4219 1451 3797 Q 1122 3375 1075 2522 Q 1259 2794 1537 2939 Q 1816 3084 2150 3084 Q 2853 3084 3261 2657 Q 3669 2231 3669 1497 Q 3669 778 3244 343 Q 2819 -91 2113 -91 Q 1303 -91 875 529 Q 447 1150 447 2328 Q 447 3434 972 4092 Q 1497 4750 2381 4750 Q 2619 4750 2861 4703 Q 3103 4656 3366 4563 z" transform="scale(0.015625)"/></defs><use xlink:href="#DejaVuSans-24"/><use x="63.623" xlink:href="#DejaVuSans-36"/><use x="127.246" xlink:href="#DejaVuSans-30"/><use x="190.869" xlink:href="#DejaVuSans-2c"/><use x="222.656" xlink:href="#DejaVuSans-30"/><use x="286.279" xlink:href="#DejaVuSans-30"/><use x="349.902" xlink:href="#DejaVuSans-30"/></g></g></g><g id="text_16"><g transform="translate(14.798437 168.86625)rotate(-90)scale(0.1 -0.1)"><defs><path id="DejaVuSans-76" d="M 191 3500 L 800 3500 L 1894 563 L 2988 3500 L 3597 3500 L 2284 0 L 1503 0 L 191 3500 z" transform="scale(0.015625)"/></defs><use xlink:href="#DejaVuSans-41"/><use x="62.533" xlink:href="#DejaVuSans-76"/><use x="121.713" xlink:href="#DejaVuSans-65"/><use x="183.236" xlink:href="#DejaVuSans-72"/><use x="224.35" xlink:href="#DejaVuSans-61"/><use x="285.629" xlink:href="#DejaVuSans-67"/><use x="349.105" xlink:href="#DejaVuSans-65"/><use x="410.629" xlink:href="#DejaVuSans-20"/><use x="442.416" xlink:href="#DejaVuSans-53"/><use x="505.893" xlink:href="#DejaVuSans-61"/><use x="567.172" xlink:href="#DejaVuSans-6c"/><use x="594.955" xlink:href="#DejaVuSans-61"/><use x="656.234" xlink:href="#DejaVuSans-72"/><use x="697.348" xlink:href="#DejaVuSans-79"/></g></g></g><g id="line2d_15"><path clip-path="url(#p68459bdb11)" style="fill:none;stroke:#424242;stroke-width:2.7;stroke-linecap:square"/></g><g id="line2d_16"><path clip-path="url(#p68459bdb11)" style="fill:none;stroke:#424242;stroke-width:2.7;stroke-linecap:square"/></g><g id="line2d_17"><path clip-path="url(#p68459bdb11)" style="fill:none;stroke:#424242;stroke-width:2.7;stroke-linecap:square"/></g><g id="line2d_18"><path clip-path="url(#p68459bdb11)" style="fill:none;stroke:#424242;stroke-width:2.7;stroke-linecap:square"/></g><g id="line2d_19"><path clip-path="url(#p68459bdb11)" style="fill:none;stroke:#424242;stroke-width:2.7;stroke-linecap:square"/></g><g id="line2d_20"><path clip-path="url(#p68459bdb11)" style="fill:none;stroke:#424242;stroke-width:2.7;stroke-linecap:square"/></g><g id="line2d_21"><path clip-path="url(#p68459bdb11)" style="fill:none;stroke:#424242;stroke-width:2.7;stroke-linecap:square"/></g><g id="patch_10"><path d="M 69.23125 239.758125 L 69.23125 22.318125" style="fill:none;stroke:#000;stroke-width:.8;stroke-linejoin:miter;stroke-linecap:square"/></g><g id="patch_11"><path d="M 404.03125 239.758125 L 404.03125 22.318125" style="fill:none;stroke:#000;stroke-width:.8;stroke-linejoin:miter;stroke-linecap:square"/></g><g id="patch_12"><path d="M 69.23125 239.758125 L 404.03125 239.758125" style="fill:none;stroke:#000;stroke-width:.8;stroke-linejoin:miter;stroke-linecap:square"/></g><g id="patch_13"><path d="M 69.23125 22.318125 L 404.03125 22.318125" style="fill:none;stroke:#000;stroke-width:.8;stroke-linejoin:miter;stroke-linecap:square"/></g><g id="text_17"><g transform="translate(115.143438 16.318125)scale(0.12 -0.12)"><defs><path id="DejaVuSans-42" d="M 1259 2228 L 1259 519 L 2272 519 Q 2781 519 3026 730 Q 3272 941 3272 1375 Q 3272 1813 3026 2020 Q 2781 2228 2272 2228 L 1259 2228 z M 1259 4147 L 1259 2741 L 2194 2741 Q 2656 2741 2882 2914 Q 3109 3088 3109 3444 Q 3109 3797 2882 3972 Q 2656 4147 2194 4147 L 1259 4147 z M 628 4666 L 2241 4666 Q 2963 4666 3353 4366 Q 3744 4066 3744 3513 Q 3744 3084 3544 2831 Q 3344 2578 2956 2516 Q 3422 2416 3680 2098 Q 3938 1781 3938 1306 Q 3938 681 3513 340 Q 3088 0 2303 0 L 628 0 L 628 4666 z" transform="scale(0.015625)"/></defs><use xlink:href="#DejaVuSans-41"/><use x="62.533" xlink:href="#DejaVuSans-76"/><use x="121.713" xlink:href="#DejaVuSans-65"/><use x="183.236" xlink:href="#DejaVuSans-72"/><use x="224.35" xlink:href="#DejaVuSans-61"/><use x="285.629" xlink:href="#DejaVuSans-67"/><use x="349.105" xlink:href="#DejaVuSans-65"/><use x="410.629" xlink:href="#DejaVuSans-20"/><use x="442.416" xlink:href="#DejaVuSans-53"/><use x="505.893" xlink:href="#DejaVuSans-61"/><use x="567.172" xlink:href="#DejaVuSans-6c"/><use x="594.955" xlink:href="#DejaVuSans-61"/><use x="656.234" xlink:href="#DejaVuSans-72"/><use x="697.348" xlink:href="#DejaVuSans-79"/><use x="756.527" xlink:href="#DejaVuSans-20"/><use x="788.314" xlink:href="#DejaVuSans-42"/><use x="856.918" xlink:href="#DejaVuSans-61"/><use x="918.197" xlink:href="#DejaVuSans-73"/><use x="970.297" xlink:href="#DejaVuSans-65"/><use x="1031.82" xlink:href="#DejaVuSans-64"/><use x="1095.297" xlink:href="#DejaVuSans-20"/><use x="1127.084" xlink:href="#DejaVuSans-6f"/><use x="1188.266" xlink:href="#DejaVuSans-6e"/><use x="1251.645" xlink:href="#DejaVuSans-20"/><use x="1283.432" xlink:href="#DejaVuSans-45"/><use x="1346.615" xlink:href="#DejaVuSans-6d"/><use x="1444.027" xlink:href="#DejaVuSans-70"/><use x="1507.504" xlink:href="#DejaVuSans-6c"/><use x="1535.287" xlink:href="#DejaVuSans-6f"/><use x="1596.469" xlink:href="#DejaVuSans-79"/><use x="1655.648" xlink:href="#DejaVuSans-65"/><use x="1717.172" xlink:href="#DejaVuSans-65"/><use x="1778.695" xlink:href="#DejaVuSans-20"/><use x="1810.482" xlink:href="#DejaVuSans-54"/><use x="1868.441" xlink:href="#DejaVuSans-69"/><use x="1896.225" xlink:href="#DejaVuSans-74"/><use x="1935.434" xlink:href="#DejaVuSans-6c"/><use x="1963.217" xlink:href="#DejaVuSans-65"/></g></g></g></g><defs><clipPath id="p68459bdb11"><rect width="334.8" height="217.44" x="69.231" y="22.318"/></clipPath></defs></svg>